<svg xmlns="http://www.w3.org/2000/svg" width="100" height="100" viewBox="0 0 100 100">
    <g fill="none" fill-rule="nonzero">
        <path fill="#000" d="M32.343 22c5.977 0 9.976 3.55 11.16 9.022.92 4.254.15 7.86-2.094 10.948-1.55 2.131-3.542 3.802-6.634 5.805-.734 5.864 1 9.766 5.229 12.11 1.461.81 1.307 2.964-.254 3.554-5.419 2.047-10.802 1.317-15.07-2.77-.036 1.402.067 2.963.318 4.698a25.273 25.273 0 0 0 7.209 14.398c1.482 1.482 3.07 2.7 4.555 3.55.207.118.409.227.603.326.487-8.683 3.722-11.045 13.672-11.045H53v1.958c0 6.225-.932 9.814-3.778 11.745C52.068 88.228 53 91.817 53 98.043V100h-1.963c-10.213 0-13.351-2.488-13.706-11.744h-.035v-.045c-10.638-.483-18.988-4.918-24.746-12.31-4.953-6.356-7.643-14.634-7.643-21.9 0-2.472.387-5.025 1.097-7.56C1.843 43.704 0 39.235 0 34.703c0-1.148.08-2.024.293-2.64a1.965 1.965 0 0 1 2.82-1.07c2.773 1.56 5.92 2.278 9.483 2.151.096-.003.19 0 .284.01C18.04 26.65 25.123 22 32.343 22zm8.904 66.28c.185 6.28 1.504 7.596 7.802 7.78-.185-6.28-1.504-7.595-7.802-7.78zm7.802-11.744c-6.298.184-7.617 1.5-7.802 7.78 6.298-.185 7.617-1.5 7.802-7.78zM32.343 25.915c-11.55 0-23.51 15.475-23.51 28.086 0 6.419 2.415 13.849 6.817 19.499 3.653 4.689 8.468 8.013 14.43 9.661-.22-.206-.438-.416-.652-.631-4.326-4.324-7.359-9.975-8.316-16.605-1.223-8.47.737-14.114 5.307-17.451a38.11 38.11 0 0 1 2.002-1.354c.664-.423 3.017-1.869 3.365-2.087 6.762-4.24 9.115-7.476 7.88-13.185-.81-3.741-3.279-5.933-7.323-5.933zm-1.642 24.4l-.059.036-.107.068c-.704.449-1.284.84-1.796 1.213-1.397 1.02-2.464 2.356-3.154 4.094 2.506 3.535 5.577 5.04 8.943 4.88-2.53-2.626-3.808-6.088-3.827-10.292zm-4.875-11.846a1.954 1.954 0 0 1-.087 2.767c-4.097 3.837-7.54 9.06-9.096 14.419a1.964 1.964 0 0 1-3.77-1.089c1.764-6.08 5.595-11.892 10.178-16.184a1.967 1.967 0 0 1 2.775.087zm-21.86-2.766c.216 2.636 1.297 5.127 3.379 6.86a38.828 38.828 0 0 1 2.83-5.544c-2.19-.142-4.26-.581-6.209-1.316zm26.46-2.255a1.96 1.96 0 0 1 1.963 1.957 1.96 1.96 0 0 1-1.963 1.958 1.96 1.96 0 0 1-1.963-1.958 1.96 1.96 0 0 1 1.963-1.957z"/>
        <path fill="#CD003C" d="M67.657 78c-5.977 0-9.976-3.55-11.16-9.022-.92-4.254-.15-7.86 2.094-10.948 1.55-2.131 3.542-3.802 6.634-5.805.734-5.864-1-9.766-5.229-12.11-1.461-.81-1.307-2.964.254-3.554 5.419-2.047 10.802-1.317 15.07 2.77.036-1.402-.067-2.963-.318-4.698a25.273 25.273 0 0 0-7.209-14.398c-1.482-1.482-3.07-2.7-4.555-3.55a14.51 14.51 0 0 0-.603-.326c-.487 8.683-3.722 11.045-13.672 11.045H47v-1.958c0-6.225.932-9.814 3.778-11.745C47.932 11.772 47 8.183 47 1.957V0h1.963c10.213 0 13.351 2.488 13.706 11.744h.035v.045c10.638.483 18.988 4.918 24.746 12.31 4.953 6.356 7.643 14.634 7.643 21.9 0 2.472-.387 5.025-1.097 7.56C98.157 56.296 100 60.765 100 65.297c0 1.148-.08 2.024-.293 2.64a1.965 1.965 0 0 1-2.82 1.07c-2.773-1.56-5.92-2.278-9.483-2.151-.096.003-.19 0-.284-.01C81.96 73.35 74.877 78 67.657 78zm-8.904-66.28c-.185-6.28-1.504-7.596-7.802-7.78.185 6.28 1.504 7.595 7.802 7.78zM50.95 23.463c6.298-.184 7.617-1.5 7.802-7.78-6.298.185-7.617 1.5-7.802 7.78zm16.706 50.621c11.55 0 23.51-15.475 23.51-28.086 0-6.419-2.415-13.849-6.817-19.499-3.653-4.689-8.468-8.013-14.43-9.661.22.206.438.416.652.631 4.326 4.324 7.359 9.975 8.316 16.605 1.223 8.47-.737 14.114-5.307 17.451a38.11 38.11 0 0 1-2.002 1.354c-.664.423-3.017 1.869-3.365 2.087-6.762 4.24-9.115 7.476-7.88 13.185.81 3.741 3.279 5.933 7.323 5.933zm1.642-24.4l.059-.036.107-.068c.704-.449 1.284-.84 1.796-1.213 1.397-1.02 2.464-2.356 3.154-4.094-2.506-3.535-5.577-5.04-8.943-4.88 2.53 2.626 3.808 6.088 3.827 10.292zm4.875 11.846a1.954 1.954 0 0 1 .087-2.767c4.097-3.837 7.54-9.06 9.096-14.419a1.964 1.964 0 0 1 3.77 1.089c-1.764 6.08-5.595 11.892-10.178 16.184-.79.74-2.033.7-2.775-.087zm21.86 2.766c-.216-2.636-1.297-5.127-3.379-6.86a38.828 38.828 0 0 1-2.83 5.544c2.19.142 4.26.581 6.209 1.316zm-26.46 2.255a1.96 1.96 0 0 1-1.963-1.957 1.96 1.96 0 0 1 1.963-1.958 1.96 1.96 0 0 1 1.963 1.958 1.96 1.96 0 0 1-1.963 1.957z"/>
    </g>
</svg>
