<svg xmlns="http://www.w3.org/2000/svg" width="100" height="100" viewBox="0 0 100 100">
    <g fill="none" fill-rule="nonzero">
        <path fill="#000" d="M12.19 0c1.034 0 1.872.838 1.872 1.871v12.236h6.816a1.872 1.872 0 1 1 0 3.742h-6.816v15.02l6.144-2.36a1.87 1.87 0 1 1 1.344 3.493l-7.488 2.876v14.91A6.214 6.214 0 0 1 7.846 58H1.873a1.872 1.872 0 1 1 0-3.742h5.973a2.47 2.47 0 0 0 2.471-2.47V38.316l-7.772 2.988A1.87 1.87 0 1 1 1.2 37.81l9.116-3.503V17.849H1.873a1.872 1.872 0 1 1 0-3.742h8.444V1.871C10.317.838 11.156 0 12.19 0zm39.095 29.842c1.034 0 1.872.838 1.872 1.87V56.13a1.872 1.872 0 0 1-3.744 0l-.001-1.928H28.179v1.928a1.872 1.872 0 0 1-3.744 0V31.713c0-1.033.838-1.871 1.872-1.871h24.978zm-1.872 14.05H28.18v6.568h21.233v-6.567zm0-10.308H28.18l-.001 6.566h21.233v-6.566zM26.307 0c1.035 0 1.873.838 1.873 1.871v10.084c8.632-1.201 16.02-3.57 22.174-7.095a1.87 1.87 0 1 1 1.862 3.246c-6.716 3.847-14.731 6.385-24.036 7.626v2.959a2.47 2.47 0 0 0 2.471 2.47h18.93c.937 0 1.794-.53 2.212-1.368l2.658-5.33a1.873 1.873 0 0 1 3.352 1.67l-2.659 5.329a6.217 6.217 0 0 1-5.563 3.44H30.65a6.214 6.214 0 0 1-6.216-6.211V1.871C24.435.838 25.273 0 26.307 0z"/>
        <path fill="#CD003C" d="M53.92 59.343c1.043 0 1.888.852 1.888 1.902v9.35c0 4.544 3.621 7.175 11.899 7.175h30.405c1.043 0 1.888.851 1.888 1.902 0 1.05-.845 1.901-1.888 1.901H86.986v2.158h11.126c1.043 0 1.888.852 1.888 1.902 0 1.05-.845 1.902-1.888 1.902l-11.126-.001v6.225c0 3.447-2.774 6.241-6.197 6.241h-5.993a1.895 1.895 0 0 1-1.889-1.902c0-1.05.846-1.901 1.889-1.901h5.993a2.43 2.43 0 0 0 2.42-2.438v-6.225h-39.32a1.895 1.895 0 0 1-1.889-1.9c0-1.051.845-1.902 1.888-1.902l39.321-.001v-2.158H67.707c-6.85 0-11.595-1.83-13.955-5.16l-6.286 4.776a1.88 1.88 0 0 1-2.645-.372 1.91 1.91 0 0 1 .37-2.663l7.043-5.352a11.63 11.63 0 0 1-.203-2.207v-7.449h-8.143A1.895 1.895 0 0 1 42 61.245c0-1.05.845-1.902 1.888-1.902H53.92zm4.605 29.754c3.434 1.33 6.688 3.199 9.759 5.603a1.91 1.91 0 0 1 .331 2.669 1.88 1.88 0 0 1-2.65.334c-2.782-2.18-5.713-3.863-8.795-5.056a1.906 1.906 0 0 1-1.086-2.458 1.884 1.884 0 0 1 2.44-1.092zm28.684-46.055a1.882 1.882 0 0 1 2.538-.836c.93.475 1.302 1.62.83 2.556a26.761 26.761 0 0 1-1.885 3.2h9.42c1.043 0 1.888.851 1.888 1.902 0 1.05-.845 1.901-1.888 1.901H79.52l-.675 2.7h12.76c1.043 0 1.888.852 1.888 1.902V73.71c0 1.05-.845 1.902-1.888 1.902H65.578a1.895 1.895 0 0 1-1.889-1.902V56.367c0-1.05.846-1.901 1.889-1.901l9.372-.001.675-2.7H59.071a1.895 1.895 0 0 1-1.889-1.901c0-1.05.846-1.902 1.889-1.902h10.258c-.64-.86-1.432-1.766-2.375-2.715a1.911 1.911 0 0 1-.001-2.69 1.88 1.88 0 0 1 2.67 0c1.867 1.878 3.266 3.674 4.19 5.405h4.283l5.705.002c1.248-1.255 2.386-2.893 3.408-4.922zm2.507 27.15h-22.25v1.616h22.25v-1.616zm0-5.962h-22.25v2.159h22.25V64.23zm-13.34-5.961h-8.91v2.158h22.25v-2.158H76.375zM49.405 44.25c2.46 1.765 4.583 4.013 6.365 6.735a1.91 1.91 0 0 1-.536 2.634 1.88 1.88 0 0 1-2.617-.54c-1.53-2.338-3.33-4.244-5.403-5.731a1.91 1.91 0 0 1-.443-2.652 1.88 1.88 0 0 1 2.634-.446z"/>
    </g>
</svg>
