<svg xmlns="http://www.w3.org/2000/svg" width="161" height="88" viewBox="0 0 161 88">
    <g fill="#000" fill-rule="nonzero">
        <path d="M99.39.5c3.805-1.636 11.635.873 12.363 5.645.589 3.857-1.655 7.197-2.45 10.815-.655 2.975-.244 6.369-.244 9.405 3.07-.994 6.208-1.297 9.2.268 1.809.946 2.758 2.948 1.153 4.636-2.235 2.351-8.262 1.908-11.274 2.15v10.817c4.103-1.982 7.108-5.401 11.971-4.232-1.075 3.913-5.22 6.229-8.288 8.465-1.398 1.019-3.216 2.061-3.866 3.78-.922 2.438.116 5.47.176 7.977.105 4.384.007 8.782.007 13.168 0 2.65.291 5.455-.573 7.994-.74 2.174-2.468 7.041-5.413 6.582-1.71-.268-3.19-2.142-4.275-3.376-1.021-1.163-1.919-2.393-2.788-3.676-1.448-2.135-3.081-4.142-3.988-6.584 2.108.445 5.203 1.938 7.306 1.055 1.88-.789 2.091-3.503 2.287-5.287.517-4.719.537-9.363.537-14.109-3.71 2.339-7.161 5.151-10.59 7.896-1.572 1.26-3.474 3.257-5.525 3.578-2.502.39-5.55-1.566-7.209-3.3-.807-.843-1.701-2.116-1.041-3.324.896-1.64 4.366-2.129 5.947-2.87 4.546-2.133 8.958-4.58 13.353-7.008 1.554-.858 4.061-1.563 5.052-3.15.704-1.127.473-2.778.474-4.05V34.36c-5.821.8-15.818 4.516-18.418-3.292 4.286-.825 8.608-1.42 12.892-2.259 1.424-.278 3.7-.287 4.787-1.381 1.62-1.633.382-5.178.296-7.176-.286-6.679-1.038-13.121-1.86-19.752zm41.44 45.102c5.317-1.023 10.445-3.278 15.654-.706 5.167 2.55 2.982 6.882 2.781 11.568-.228 5.316.129 10.696.484 15.99.326 4.869.544 10.506-3.768 13.902-4.438 3.494-5.707-5.252-8.343-6.835-1.354-.814-3.058-.322-4.506-.148-2.722.328-5.55.358-8.288.563-1.452.109-3.195-.096-4.405.915-1.327 1.11-1.39 3.673-2.042 5.24-3.248-.932-5.217-4.16-5.482-7.524-.375-4.766 1.578-9.38 1.78-14.109.152-3.517.569-7.84-.16-11.286-.455-2.144-1.743-3.931-2.123-6.114 6.09-.129 12.418-.3 18.417-1.456zm10.905 17.903c-6.984.15-13.81 2.394-20.814 2.395-.53 2.958-.8 6.095-.925 9.1 7.534-.065 14.19-2.266 21.74-.479V63.505zM139.71 50.138c-2.946.208-5.825.889-8.788.914l-.462 10.058c7.052-.313 14.288-3.738 21.276-2.394v-8.621c-3.985 0-8.05-.24-12.026.043zM123.262 3.39c1.033-3.077 7.15-.277 8.276 1.525 1.7 2.721.162 8.605-.378 11.574 5.913-1.567 13.186-4.862 19.339-4.098 1.908.237 5.6.657 5.958 3.168.355 2.492-3.91 2.936-5.498 3.441-6.49 2.067-13.452 3.602-20.26 3.602 0 2.106-.317 4.54.264 6.582 1.156 4.057 5.267 3.565 8.485 3.336 5.896-.42 16.59-5.41 21.18-.042-2.055 1.79-4.424 3.912-6.906 5.043-1.976.9-4.332.923-6.446 1.203-6.895.915-17.023 1.553-21.382-5.324-1.39-2.192-1.127-4.549-1.187-7.036-.077-3.228-.232-6.658-.532-9.875-.278-2.98-.161-5.967-.43-8.936-.12-1.312-.92-2.86-.483-4.163zM6.611 22.172c4.042-1.874 10.593-6.825 13.294-.302 1.686 4.07-4.495 6.654-5.04 10.209-.312 2.03 2.524 3.908 3.384 5.579 1.015 1.972.72 4.356.72 6.509 3.53.01 7.012.644 10.526.888 15.603 1.085 31.502 2.355 47.141 2.366-1.408 2.228-3.588 3.416-5.95 4.45-3.823 1.675-7.693 2.872-11.9 2.444-4.21-.427-8.568-2.218-12.814-1.78 1.367.974 1.604 2.07 1.83 3.72 4.14-1.182 7.862-1.841 11.9.087 1.48.707 3.91 2.456 2.397 4.323-.976 1.205-2.843 1.15-4.228 1.167-3.507.044-7.018.001-10.526.001 0 3.238-.177 6.533.04 9.764.207 3.056.848 6.236.244 9.298-.498 2.525-2.965 7.966-6.234 6.989-2.6-.776-4.344-3.974-5.817-6.06-1.188-1.68-2.507-3.22-3.337-5.113 1.916.377 5.442 2.184 7.262 1.6 1.56-.499 1.776-2.546 2.004-3.925.686-4.136-.394-8.398-.57-12.553-6.904 0-13.715 1.376-20.595 1.395v.93c2.576.228 6.152.94 7.976 2.97 1.648 1.838 1.66 5.937-.715 7.238-1.641.9-3.322-.315-4.497-1.425-2.423-2.29-4.708-5.383-5.053-8.783-3.9.315-7.143 1.499-10.984-.032-1.116-.445-4.488-2.157-2.574-3.682.862-.686 2.442-.751 3.49-.856 2.74-.275 5.486-.481 8.237-.551 8.113-.205 16.209-1.65 24.258-2.318-.414-2.034-.873-3.955-.916-6.043-8.092-.17-16.09-2.46-24.257-2.3-3.693.073-7.827 2.705-11.44 1.596-1.285-.395-4.889-3.317-2.541-4.595 1.192-.649 3.06-.226 4.37-.36 2.924-.297 5.746-1.186 8.696-1.315-.917-3.56-3.859-7.176-4.253-10.693-.265-2.365.882-5.187 1.507-7.439-3.653.08-6.979 1.963-10.527.465.77-2.486 3.344-2.866 5.492-3.863zM49.175 9.96c4.965-.73 10.31-1.546 13.73 3.059-4.374 2.501-9.765 2.024-14.645 2.366-2.611.183-5.155.833-7.78.888.03 1.902-1.113 2.78-2.289 4.184 4.852-1.398 12.525-4.498 16.595.296 1.571 1.852.28 4.615-.052 6.678-.986 6.127-.004 12.27-2.355 18.132-2.134-.622-3.035-2.67-5.041-3.44-1.378-.528-3.124-.28-4.57-.28-4.16.002-10.796-.552-13.73 2.79-3.65-2.074-3.032-6.14-2.788-9.763.295-4.373-.026-8.836-1.332-13.018 2.172.045 4.838.975 6.768-.399 1.495-1.064 2.094-3.11 2.844-4.715-4.523.58-11.57 2.74-13.73-2.79 9.453-.764 18.978-2.606 28.375-3.988zm-.915 24.91c-5.774 1.092-11.982 1.603-17.85 1.86v1.859c5.955-.004 11.903-1.136 17.85-1.395V34.87zm0-5.58c-5.709.458-11.774.8-17.392 1.86v1.86c5.649-1.065 11.656-1.395 17.392-1.395V29.29zm-12.815-4.811c-2.164.494-4.163.435-4.577 2.952 5.497-1.037 11.344-1.844 16.934-1.86v-2.324c-4.207-.302-8.244.293-12.357 1.232zM6.062 6.54c.9-.78 3.178-.084 4.21.113 3.886.742 8.625 2.384 7.468 7.294-.214.906-.532 1.886-1.257 2.509-3.422 2.942-7.69-4.056-9.316-6.228-.601-.803-2.261-2.688-1.105-3.688zm22.683-3.27c1.112-.797 2.802-.23 3.954.152 3.373 1.116 7.063 4.513 2.726 7.39-3 1.99-5.011-1.564-6.355-3.838-.613-1.038-1.642-2.762-.325-3.705zM46.887 0c.986.317 1.856.67 2.746 1.225.586.364 1.237.753 1.703 1.276 4.11 4.611-5.766 7.23-9.026 7.727C43.33 6.634 45.475 3.446 46.887 0z"/>
    </g>
</svg>
