<svg xmlns="http://www.w3.org/2000/svg" width="49" height="37" viewBox="0 0 49 37">
    <path fill="#000" fill-rule="nonzero" d="M48.02 35.053c.541 0 .98.436.98.973 0 .5-.378.911-.866.967L48.02 37H.98a.977.977 0 0 1-.98-.974c0-.499.378-.91.866-.967l.114-.006h47.04zm0-17.527c.541 0 .98.436.98.974 0 .5-.378.91-.866.967l-.114.007H.98A.977.977 0 0 1 0 18.5c0-.5.378-.91.866-.967l.114-.007h47.04zM48.02 0c.541 0 .98.436.98.974 0 .499-.378.91-.866.967l-.114.006H.98A.977.977 0 0 1 0 .974c0-.5.378-.911.866-.967L.98 0h47.04z"/>
</svg>
